<svg xmlns="http://www.w3.org/2000/svg" xmlns:xlink="http://www.w3.org/1999/xlink" width="2000" zoomAndPan="magnify" viewBox="0 0 1500 1499.999933" height="2000" preserveAspectRatio="xMidYMid meet" version="1.0"><defs><clipPath id="30534266f1"><path d="M 195.9375 0 L 1304.4375 0 L 1304.4375 1500 L 195.9375 1500 Z M 195.9375 0 " clip-rule="nonzero"/></clipPath></defs><g clip-path="url(#30534266f1)"><path fill="#845d85" d="M 1300.890625 3.226562 L 1300.535156 2.875 C 1298.949219 0.9375 1297.011719 0.0546875 1294.894531 0.0546875 C 1293.132812 0.0546875 1291.367188 0.757812 1289.78125 2.347656 C 1275.324219 17.15625 1260.867188 32.671875 1246.761719 47.660156 C 1230.011719 65.820312 1212.554688 84.507812 1195.101562 101.609375 C 1160.015625 136.34375 1121.929688 168.960938 1074.855469 204.578125 C 1048.9375 224.324219 1021.257812 244.421875 994.808594 255.355469 C 991.636719 256.589844 989.167969 260.46875 988.285156 265.226562 C 988.285156 265.40625 988.285156 265.582031 988.285156 265.582031 C 988.285156 265.582031 988.109375 265.40625 988.109375 265.226562 C 986.347656 262.582031 984.054688 261.171875 981.585938 261.171875 C 980.703125 261.171875 979.648438 261.347656 978.765625 261.878906 C 911.414062 295.203125 834.894531 312.832031 757.847656 312.832031 C 755.199219 312.832031 752.734375 312.65625 750.089844 312.65625 C 744.976562 312.65625 740.039062 312.480469 734.925781 312.304688 C 694.019531 310.363281 654.351562 303.664062 616.621094 291.851562 C 592.640625 284.445312 570.074219 275.984375 549.621094 266.640625 C 543.625 263.992188 537.632812 260.820312 531.636719 258 C 522.292969 253.414062 512.59375 248.480469 502.898438 244.777344 C 502.191406 244.421875 501.3125 244.421875 500.605469 244.421875 C 498.136719 244.421875 495.667969 246.011719 493.90625 248.832031 C 493.375 249.535156 493.023438 250.417969 492.671875 251.300781 C 492.144531 249.183594 491.613281 247.066406 491.085938 244.953125 C 490.027344 241.25 488.085938 238.429688 485.796875 237.019531 C 406.984375 191.53125 344.746094 145.863281 290.089844 93.148438 C 271.398438 74.988281 252.535156 55.59375 234.199219 35.84375 C 231.375 32.847656 228.730469 29.5 225.734375 25.972656 C 220.796875 19.976562 215.507812 13.804688 209.867188 8.695312 C 208.457031 7.460938 206.867188 6.753906 205.28125 6.753906 C 202.988281 6.753906 200.523438 8.164062 198.757812 10.808594 C 195.761719 15.21875 195.054688 22.269531 196.996094 27.910156 C 207.222656 57.53125 222.207031 89.972656 236.488281 121.355469 C 243.1875 136.167969 249.710938 150.097656 255.355469 163.320312 L 396.050781 484.5625 C 416.152344 530.929688 436.25 578.007812 455.824219 623.671875 C 488.96875 700.898438 522.996094 780.765625 557.554688 858.695312 C 563.019531 871.039062 568.664062 885.144531 574.65625 899.953125 C 585.589844 927.105469 596.871094 954.964844 608.15625 975.945312 C 605.511719 977.179688 603.21875 980 602.160156 984.054688 C 597.046875 1001.863281 592.464844 1028.484375 598.988281 1055.285156 C 604.984375 1080.144531 619.617188 1100.421875 642.359375 1115.40625 C 643.949219 1116.464844 645.535156 1117.523438 647.296875 1118.40625 C 645.359375 1120.519531 643.949219 1123.519531 643.417969 1127.042969 C 628.433594 1229.480469 609.214844 1298.597656 575.007812 1374.058594 C 572.542969 1379.699219 572.894531 1387.28125 575.890625 1392.21875 C 595.992188 1425.011719 620.144531 1446.523438 639.011719 1461.507812 C 639.1875 1461.6875 639.363281 1461.6875 639.539062 1461.863281 L 642.890625 1464.152344 C 647.828125 1467.503906 652.585938 1470.855469 657.523438 1474.027344 C 658.757812 1474.734375 659.816406 1475.085938 661.050781 1475.085938 C 662.285156 1475.085938 663.519531 1474.734375 664.753906 1473.851562 C 665.28125 1473.5 665.8125 1472.96875 666.339844 1472.441406 C 667.574219 1475.613281 669.335938 1477.90625 671.628906 1478.964844 C 701.777344 1493.070312 730.871094 1499.945312 760.84375 1499.945312 C 762.957031 1499.945312 765.074219 1499.945312 767.191406 1499.769531 C 790.109375 1498.535156 813.738281 1490.25 834.542969 1483.019531 C 837.1875 1482.136719 839.480469 1479.316406 840.710938 1475.4375 C 841.066406 1474.558594 841.242188 1473.675781 841.417969 1472.792969 C 842.828125 1474.027344 844.414062 1474.734375 846.179688 1474.734375 C 847.238281 1474.734375 848.292969 1474.378906 849.351562 1473.851562 L 853.230469 1471.734375 C 859.050781 1468.5625 865.042969 1465.210938 870.863281 1461.332031 C 871.039062 1461.332031 871.039062 1461.15625 871.214844 1461.15625 C 895.546875 1443.703125 917.761719 1420.957031 935.394531 1395.746094 C 938.917969 1390.632812 939.273438 1382.167969 936.449219 1376.351562 C 910.710938 1325.21875 893.078125 1276.910156 879.5 1219.960938 C 878.265625 1214.847656 875.976562 1203.035156 873.507812 1190.339844 C 864.515625 1143.617188 861.164062 1128.101562 857.285156 1121.753906 C 856.933594 1121.226562 856.582031 1120.875 856.226562 1120.34375 C 873.859375 1111 888.492188 1098.65625 899.953125 1083.144531 C 911.765625 1067.273438 917.585938 1051.230469 917.9375 1034.304688 C 918.289062 1013.675781 911.589844 999.21875 904.183594 986.875 C 902.421875 983.878906 899.953125 982.292969 897.308594 982.292969 C 896.425781 982.292969 895.546875 982.46875 894.664062 982.820312 C 904.363281 967.480469 913.355469 948.441406 923.050781 924.109375 C 967.480469 814.265625 1013.675781 703.011719 1060.398438 593.523438 L 1129.335938 434.3125 L 1243.941406 159.792969 C 1249.230469 147.453125 1254.34375 135.109375 1259.457031 122.769531 C 1269.503906 98.4375 1280.082031 73.222656 1290.839844 49.246094 C 1291.367188 48.011719 1292.25 46.25 1293.308594 44.132812 C 1300.890625 29.5 1304.414062 21.742188 1304.0625 13.277344 C 1304.414062 9.75 1303.179688 5.695312 1300.890625 3.226562 Z M 1300.890625 3.226562 " fill-opacity="1" fill-rule="nonzero"/></g><path fill="#0a0908" d="M 616.796875 969.597656 C 599.339844 938.214844 581.003906 886.730469 565.136719 850.585938 C 510.304688 726.816406 457.585938 601.105469 403.632812 476.449219 L 263.464844 155.03125 C 245.480469 113.597656 220.269531 63.527344 205.457031 20.859375 C 213.746094 28.265625 221.328125 38.84375 229.085938 47.304688 C 247.597656 67.230469 266.285156 86.449219 285.328125 104.960938 C 347.390625 164.90625 414.390625 210.746094 482.796875 250.242188 C 492.671875 286.914062 500.605469 325.351562 509.597656 362.554688 C 525.996094 431.667969 542.921875 500.429688 560.023438 569.015625 C 587.878906 675.859375 614.503906 783.410156 640.246094 891.667969 C 648.882812 928.164062 662.988281 976.121094 668.808594 1012.617188 C 668.457031 1012.441406 668.101562 1012.265625 667.75 1012.089844 C 652.410156 1004.507812 627.550781 988.992188 616.796875 969.597656 Z M 616.796875 969.597656 " fill-opacity="1" fill-rule="nonzero"/><path fill="#0a0908" d="M 694.019531 1250.992188 C 687.671875 1322.574219 676.566406 1392.925781 661.050781 1460.980469 C 655.054688 1457.101562 649.0625 1453.046875 643.242188 1448.992188 C 621.027344 1431.183594 599.871094 1410.90625 582.589844 1382.519531 C 619.617188 1300.886719 638.128906 1227.894531 652.585938 1130.570312 C 668.632812 1138.328125 685.203125 1143.089844 701.777344 1147.496094 C 698.074219 1181.523438 697.019531 1216.609375 694.019531 1250.992188 Z M 694.019531 1250.992188 " fill-opacity="1" fill-rule="nonzero"/><path fill="#ea8d9a" d="M 795.578125 1053.875 L 797.164062 1053.347656 C 805.097656 1050.699219 813.738281 1051.230469 821.847656 1048.9375 C 849.175781 1041.003906 875.09375 1021.785156 897.660156 997.277344 C 904.007812 1008.035156 909.296875 1018.964844 908.945312 1034.480469 C 908.59375 1050.171875 901.363281 1063.042969 894.136719 1072.917969 C 860.988281 1117.875 802.628906 1127.574219 759.785156 1128.277344 C 723.640625 1128.808594 679.5625 1124.398438 646.0625 1102.359375 C 630.546875 1092.132812 613.976562 1076.089844 607.628906 1050.347656 C 602.867188 1030.601562 605.335938 1008.738281 610.625 990.050781 C 670.042969 1054.757812 725.40625 1060.222656 795.578125 1053.875 Z M 795.578125 1053.875 " fill-opacity="1" fill-rule="nonzero"/><path fill="#0a0908" d="M 784.820312 1151.023438 C 787.996094 1260.691406 804.214844 1368.59375 832.601562 1469.265625 C 811.269531 1476.671875 788.875 1484.429688 767.015625 1485.664062 C 735.101562 1486.722656 704.777344 1479.667969 674.449219 1465.386719 C 694.726562 1377.054688 712.535156 1244.117188 714.472656 1150.671875 C 729.636719 1151.375 744.976562 1153.492188 760.136719 1152.257812 C 768.425781 1151.375 776.535156 1151.199219 784.820312 1151.023438 Z M 784.820312 1151.023438 " fill-opacity="1" fill-rule="nonzero"/><path fill="#0a0908" d="M 870.6875 1225.425781 C 884.96875 1285.550781 903.480469 1335.09375 929.046875 1385.519531 C 911.0625 1411.4375 889.375 1432.59375 867.160156 1448.460938 C 860.285156 1453.046875 853.230469 1456.75 846.179688 1460.804688 C 814.617188 1364.539062 805.273438 1254.164062 797.164062 1148.203125 C 815.5 1146.085938 832.777344 1138.855469 850.585938 1131.980469 C 854.992188 1139.386719 866.808594 1209.03125 870.6875 1225.425781 Z M 870.6875 1225.425781 " fill-opacity="1" fill-rule="nonzero"/><path fill="#0a0908" d="M 556.144531 488.265625 C 537.101562 412.800781 515.0625 336.8125 500.957031 258.882812 C 516.472656 265.050781 531.8125 273.691406 547.328125 280.742188 C 569.542969 290.792969 592.464844 299.257812 615.207031 306.308594 C 732.28125 342.804688 868.21875 332.226562 981.9375 275.808594 C 969.070312 342.101562 952.671875 406.984375 937.332031 472.042969 L 860.105469 795.398438 C 841.417969 874.210938 822.023438 951.613281 801.042969 1029.015625 C 763.664062 1036.417969 721.703125 1032.894531 685.203125 1019.847656 C 670.394531 945.617188 651.351562 872.273438 633.546875 799.632812 Z M 556.144531 488.265625 " fill-opacity="1" fill-rule="nonzero"/><path fill="#0a0908" d="M 1295.421875 14.6875 C 1295.597656 19.800781 1286.078125 36.199219 1283.785156 41.488281 C 1267.390625 77.632812 1252.402344 115.539062 1236.710938 152.386719 L 1122.109375 426.90625 L 1053.347656 585.941406 C 1006.621094 695.429688 960.957031 805.625 916 916.878906 C 888.316406 984.9375 870.507812 1007.328125 819.730469 1024.960938 C 819.554688 1024.785156 819.554688 1024.785156 819.378906 1024.605469 C 817.792969 1020.199219 824.140625 1001.15625 825.550781 995.339844 C 853.582031 889.726562 877.210938 781.648438 903.480469 675.15625 L 952.671875 470.984375 C 968.714844 404.339844 985.289062 337.515625 997.808594 269.285156 C 1025.488281 257.824219 1053.699219 237.019531 1079.441406 217.449219 C 1121.226562 185.886719 1161.425781 152.386719 1200.742188 113.597656 C 1232.832031 81.863281 1263.511719 46.601562 1295.421875 14.160156 Z M 1295.421875 14.6875 " fill-opacity="1" fill-rule="nonzero"/><path fill="#f3dfea" d="M 981.9375 275.984375 C 969.070312 342.277344 952.671875 407.160156 937.332031 472.21875 L 860.105469 795.578125 C 841.417969 874.386719 822.023438 951.789062 801.042969 1029.191406 C 763.664062 1036.597656 721.703125 1033.070312 685.203125 1020.023438 C 670.394531 945.796875 651.351562 872.449219 633.546875 799.808594 L 556.320312 488.441406 C 537.277344 412.976562 515.238281 336.988281 501.132812 259.058594 C 516.648438 265.226562 531.988281 273.867188 547.503906 280.921875 C 569.71875 290.96875 592.640625 299.433594 615.386719 306.484375 C 732.105469 342.804688 868.042969 332.226562 981.9375 275.984375 Z M 981.9375 275.984375 " fill-opacity="1" fill-rule="nonzero"/><path fill="#ea8d9a" d="M 1295.421875 14.6875 C 1295.597656 19.800781 1286.078125 36.199219 1283.785156 41.488281 C 1267.390625 77.632812 1252.402344 115.539062 1236.710938 152.386719 L 1122.109375 426.90625 L 1053.347656 585.941406 C 1006.621094 695.429688 960.957031 805.625 916 916.878906 C 888.316406 984.9375 870.507812 1007.328125 819.730469 1024.960938 C 819.554688 1024.785156 819.554688 1024.785156 819.378906 1024.605469 C 817.792969 1020.199219 824.140625 1001.15625 825.550781 995.339844 C 853.582031 889.726562 877.210938 781.648438 903.480469 675.15625 L 952.671875 470.984375 C 968.714844 404.339844 985.289062 337.515625 997.808594 269.285156 C 1025.488281 257.824219 1053.699219 237.019531 1079.441406 217.449219 C 1121.226562 185.886719 1161.425781 152.386719 1200.742188 113.597656 C 1232.832031 81.863281 1263.511719 46.601562 1295.421875 14.160156 Z M 1295.421875 14.6875 " fill-opacity="1" fill-rule="nonzero"/><path fill="#f3dfea" d="M 668.984375 1012.96875 C 668.632812 1012.792969 668.277344 1012.617188 667.925781 1012.441406 C 652.410156 1004.507812 627.550781 988.992188 616.796875 969.597656 C 599.339844 938.214844 581.003906 886.730469 565.136719 850.585938 C 510.304688 726.816406 457.585938 601.105469 403.632812 476.449219 L 263.464844 155.03125 C 245.480469 113.597656 220.269531 63.527344 205.457031 20.859375 C 213.746094 28.265625 221.328125 38.84375 229.085938 47.304688 C 247.597656 67.230469 266.285156 86.449219 285.328125 104.960938 C 347.390625 164.90625 414.390625 210.746094 482.796875 250.242188 C 492.671875 286.914062 500.605469 325.351562 509.597656 362.554688 C 525.996094 431.667969 542.921875 500.429688 560.023438 569.015625 C 587.878906 675.859375 614.503906 783.410156 640.246094 891.667969 C 649.0625 928.515625 662.988281 976.472656 668.984375 1012.96875 Z M 668.984375 1012.96875 " fill-opacity="1" fill-rule="nonzero"/><path fill="#f3dfea" d="M 832.601562 1469.265625 C 811.269531 1476.671875 788.875 1484.429688 767.015625 1485.664062 C 735.101562 1486.722656 704.777344 1479.667969 674.449219 1465.386719 C 694.726562 1377.054688 712.535156 1244.117188 714.472656 1150.671875 C 729.636719 1151.375 744.976562 1153.492188 760.136719 1152.257812 C 768.425781 1151.023438 776.535156 1150.847656 784.820312 1150.847656 C 787.996094 1260.867188 804.214844 1368.769531 832.601562 1469.265625 Z M 832.601562 1469.265625 " fill-opacity="1" fill-rule="nonzero"/><path fill="#ea8d9a" d="M 929.046875 1385.519531 C 911.0625 1411.4375 889.375 1432.59375 867.160156 1448.460938 C 860.285156 1453.046875 853.230469 1456.75 846.179688 1460.804688 C 814.617188 1364.539062 805.273438 1254.164062 797.164062 1148.203125 C 815.5 1146.085938 832.777344 1138.859375 850.585938 1131.980469 C 854.992188 1139.210938 866.808594 1208.855469 870.6875 1225.25 C 885.144531 1285.550781 903.65625 1335.09375 929.046875 1385.519531 Z M 929.046875 1385.519531 " fill-opacity="1" fill-rule="nonzero"/><path fill="#f3dfea" d="M 701.601562 1147.320312 C 698.253906 1181.523438 697.019531 1216.789062 694.019531 1251.167969 C 687.671875 1322.75 676.566406 1393.101562 661.050781 1461.15625 C 655.054688 1457.277344 649.0625 1453.222656 643.242188 1449.167969 C 621.027344 1431.359375 599.871094 1411.085938 582.589844 1382.699219 C 619.617188 1301.066406 638.128906 1228.070312 652.585938 1130.746094 C 668.457031 1138.152344 685.027344 1142.734375 701.601562 1147.320312 Z M 701.601562 1147.320312 " fill-opacity="1" fill-rule="nonzero"/></svg>